<svg width="292" height="35" viewBox="0 0 292 35" fill="none" xmlns="http://www.w3.org/2000/svg">
<path d="M2.14 2.725C2.17 2.485 2.26 2.32 2.41 2.23C2.59 2.11 2.755 2.05 2.905 2.05C4.945 2.05 6.85 1.99 8.62 1.87C10.42 1.72 11.83 1.645 12.85 1.645C15.4 1.645 17.53 1.9 19.24 2.41C20.98 2.92 22.375 3.715 23.425 4.795C24.505 5.875 25.27 7.27 25.72 8.98C26.17 10.69 26.395 12.745 26.395 15.145C26.395 17.575 26.14 19.96 25.63 22.3C25.15 24.61 24.295 26.665 23.065 28.465C21.835 30.265 20.17 31.72 18.07 32.83C16 33.91 13.375 34.45 10.195 34.45C8.725 34.45 7.375 34.42 6.145 34.36C4.945 34.3 3.91 34.12 3.04 33.82C2.17 33.52 1.495 33.07 1.015 32.47C0.535 31.87 0.295 31.045 0.295 29.995C0.295 29.605 0.31 29.02 0.34 28.24C0.4 27.46 0.46 26.53 0.52 25.45C0.61 24.37 0.7 23.185 0.79 21.895C0.91 20.575 1.03 19.195 1.15 17.755C1.39 14.785 1.57 12.415 1.69 10.645C1.84 8.875 1.93 7.495 1.96 6.505C2.02 5.485 2.05 4.72 2.05 4.21C2.08 3.7 2.11 3.205 2.14 2.725ZM10.51 27.34C12.19 27.34 13.525 26.98 14.515 26.26C15.535 25.54 16.315 24.625 16.855 23.515C17.395 22.405 17.755 21.19 17.935 19.87C18.115 18.55 18.205 17.305 18.205 16.135C18.205 14.875 18.115 13.78 17.935 12.85C17.785 11.89 17.5 11.095 17.08 10.465C16.69 9.835 16.135 9.37 15.415 9.07C14.695 8.74 13.795 8.575 12.715 8.575C12.385 8.575 11.965 8.59 11.455 8.62C10.945 8.65 10.33 8.695 9.61 8.755C9.55 9.865 9.475 11.185 9.385 12.715C9.295 14.215 9.19 15.805 9.07 17.485C8.98 19.135 8.875 20.815 8.755 22.525C8.635 24.205 8.515 25.765 8.395 27.205C8.845 27.265 9.25 27.31 9.61 27.34C9.97 27.34 10.27 27.34 10.51 27.34ZM40.2107 34.45C38.8907 34.45 37.5707 34.285 36.2507 33.955C34.9607 33.625 33.7907 33.055 32.7407 32.245C31.7207 31.435 30.8807 30.355 30.2207 29.005C29.5607 27.655 29.2307 25.96 29.2307 23.92C29.2307 23.17 29.2907 22.27 29.4107 21.22C29.5307 20.17 29.7557 19.09 30.0857 17.98C30.4457 16.87 30.9257 15.775 31.5257 14.695C32.1557 13.585 32.9657 12.595 33.9557 11.725C34.9457 10.855 36.1457 10.15 37.5557 9.61C38.9657 9.07 40.6457 8.8 42.5957 8.8C44.1557 8.8 45.4757 8.98 46.5557 9.34C47.6357 9.7 48.5057 10.195 49.1657 10.825C49.8257 11.425 50.3057 12.13 50.6057 12.94C50.9057 13.75 51.0557 14.62 51.0557 15.55C51.0557 16.93 50.7707 18.1 50.2007 19.06C49.6607 20.02 48.9407 20.83 48.0407 21.49C47.1707 22.12 46.1957 22.615 45.1157 22.975C44.0357 23.335 42.9707 23.62 41.9207 23.83C40.8707 24.01 39.8957 24.13 38.9957 24.19C38.1257 24.22 37.4507 24.235 36.9707 24.235C36.9707 24.805 37.0457 25.375 37.1957 25.945C37.3757 26.485 37.6307 26.965 37.9607 27.385C38.2907 27.805 38.7257 28.15 39.2657 28.42C39.8057 28.69 40.4657 28.825 41.2457 28.825C42.0257 28.825 42.6257 28.705 43.0457 28.465C43.4957 28.195 43.8557 27.91 44.1257 27.61C44.3957 27.28 44.6207 26.995 44.8007 26.755C45.0107 26.485 45.2807 26.35 45.6107 26.35C45.7607 26.35 46.0157 26.395 46.3757 26.485C46.7657 26.545 47.1557 26.695 47.5457 26.935C47.9357 27.175 48.2807 27.505 48.5807 27.925C48.8807 28.345 49.0307 28.885 49.0307 29.545C49.0307 30.415 48.7607 31.165 48.2207 31.795C47.6807 32.425 46.9757 32.935 46.1057 33.325C45.2657 33.715 44.3207 34 43.2707 34.18C42.2207 34.36 41.2007 34.45 40.2107 34.45ZM41.0657 14.785C40.4057 14.785 39.8357 14.98 39.3557 15.37C38.9057 15.73 38.5157 16.195 38.1857 16.765C37.8857 17.335 37.6457 17.965 37.4657 18.655C37.3157 19.345 37.1957 20.005 37.1057 20.635C38.9657 20.605 40.4657 20.29 41.6057 19.69C42.7757 19.09 43.3607 18.235 43.3607 17.125C43.3607 16.525 43.1657 15.985 42.7757 15.505C42.4157 15.025 41.8457 14.785 41.0657 14.785ZM68.3009 20.005C68.1209 20.005 67.9109 20.005 67.6709 20.005C67.4609 19.975 67.2509 19.945 67.0409 19.915C66.8309 19.855 66.6509 19.795 66.5009 19.735C66.3509 19.645 66.2759 19.54 66.2759 19.42C66.2759 19.03 66.2909 18.67 66.3209 18.34C66.3509 18.01 66.3659 17.665 66.3659 17.305C66.3659 16.645 66.2759 16.105 66.0959 15.685C65.9159 15.265 65.5559 15.055 65.0159 15.055C64.1759 15.055 63.4709 15.61 62.9009 16.72C62.3609 17.8 62.0159 19.435 61.8659 21.625C61.8059 22.585 61.7159 23.68 61.5959 24.91C61.5059 26.11 61.4159 27.28 61.3259 28.42C61.2359 29.53 61.1609 30.52 61.1009 31.39C61.0409 32.26 61.0109 32.83 61.0109 33.1C61.0109 33.4 60.9059 33.625 60.6959 33.775C60.4859 33.925 60.2609 34 60.0209 34H58.4009C57.4709 34 56.7059 33.91 56.1059 33.73C55.5359 33.52 55.0709 33.235 54.7109 32.875C54.3809 32.515 54.1409 32.08 53.9909 31.57C53.8709 31.03 53.8109 30.415 53.8109 29.725C53.8109 29.275 53.8259 28.645 53.8559 27.835C53.9159 26.995 54.0059 25.855 54.1259 24.415C54.2459 22.945 54.3809 21.1 54.5309 18.88C54.7109 16.63 54.9209 13.855 55.1609 10.555C55.2209 9.685 55.5359 9.25 56.1059 9.25H57.8609C58.7009 9.25 59.4059 9.34 59.9759 9.52C60.5459 9.7 61.0109 9.955 61.3709 10.285C61.7309 10.585 61.9859 10.945 62.1359 11.365C62.3159 11.785 62.4359 12.22 62.4959 12.67C62.8559 11.98 63.2759 11.395 63.7559 10.915C64.2659 10.405 64.7909 10 65.3309 9.7C65.8709 9.37 66.4259 9.145 66.9959 9.025C67.5659 8.875 68.0909 8.8 68.5709 8.8C69.1409 8.8 69.7109 8.905 70.2809 9.115C70.8809 9.325 71.4209 9.64 71.9009 10.06C72.3809 10.48 72.7559 11.02 73.0259 11.68C73.3259 12.34 73.4759 13.12 73.4759 14.02C73.4759 14.83 73.3559 15.595 73.1159 16.315C72.8759 17.035 72.5309 17.68 72.0809 18.25C71.6309 18.79 71.0759 19.225 70.4159 19.555C69.7859 19.855 69.0809 20.005 68.3009 20.005ZM89.8341 20.005C89.6541 20.005 89.4441 20.005 89.2041 20.005C88.9941 19.975 88.7841 19.945 88.5741 19.915C88.3641 19.855 88.1841 19.795 88.0341 19.735C87.8841 19.645 87.8091 19.54 87.8091 19.42C87.8091 19.03 87.8241 18.67 87.8541 18.34C87.8841 18.01 87.8991 17.665 87.8991 17.305C87.8991 16.645 87.8091 16.105 87.6291 15.685C87.4491 15.265 87.0891 15.055 86.5491 15.055C85.7091 15.055 85.0041 15.61 84.4341 16.72C83.8941 17.8 83.5491 19.435 83.3991 21.625C83.3391 22.585 83.2491 23.68 83.1291 24.91C83.0391 26.11 82.9491 27.28 82.8591 28.42C82.7691 29.53 82.6941 30.52 82.6341 31.39C82.5741 32.26 82.5441 32.83 82.5441 33.1C82.5441 33.4 82.4391 33.625 82.2291 33.775C82.0191 33.925 81.7941 34 81.5541 34H79.9341C79.0041 34 78.2391 33.91 77.6391 33.73C77.0691 33.52 76.6041 33.235 76.2441 32.875C75.9141 32.515 75.6741 32.08 75.5241 31.57C75.4041 31.03 75.3441 30.415 75.3441 29.725C75.3441 29.275 75.3591 28.645 75.3891 27.835C75.4491 26.995 75.5391 25.855 75.6591 24.415C75.7791 22.945 75.9141 21.1 76.0641 18.88C76.2441 16.63 76.4541 13.855 76.6941 10.555C76.7541 9.685 77.0691 9.25 77.6391 9.25H79.3941C80.2341 9.25 80.9391 9.34 81.5091 9.52C82.0791 9.7 82.5441 9.955 82.9041 10.285C83.2641 10.585 83.5191 10.945 83.6691 11.365C83.8491 11.785 83.9691 12.22 84.0291 12.67C84.3891 11.98 84.8091 11.395 85.2891 10.915C85.7991 10.405 86.3241 10 86.8641 9.7C87.4041 9.37 87.9591 9.145 88.5291 9.025C89.0991 8.875 89.6241 8.8 90.1041 8.8C90.6741 8.8 91.2441 8.905 91.8141 9.115C92.4141 9.325 92.9541 9.64 93.4341 10.06C93.9141 10.48 94.2891 11.02 94.5591 11.68C94.8591 12.34 95.0091 13.12 95.0091 14.02C95.0091 14.83 94.8891 15.595 94.6491 16.315C94.4091 17.035 94.0641 17.68 93.6141 18.25C93.1641 18.79 92.6091 19.225 91.9491 19.555C91.3191 19.855 90.6141 20.005 89.8341 20.005ZM101.467 34C100.537 34 99.7723 33.91 99.1723 33.73C98.6023 33.52 98.1373 33.235 97.7773 32.875C97.4473 32.515 97.2073 32.08 97.0573 31.57C96.9373 31.03 96.8773 30.415 96.8773 29.725C96.8773 29.275 96.8923 28.645 96.9223 27.835C96.9823 26.995 97.0723 25.855 97.1923 24.415C97.3123 22.945 97.4473 21.1 97.5973 18.88C97.7773 16.63 97.9873 13.855 98.2273 10.555C98.2573 9.895 98.3323 9.505 98.4523 9.385C98.5423 9.295 98.7823 9.25 99.1723 9.25H100.927C101.857 9.25 102.607 9.34 103.177 9.52C103.777 9.7 104.242 9.97 104.572 10.33C104.932 10.69 105.172 11.125 105.292 11.635C105.442 12.145 105.517 12.715 105.517 13.345C105.517 13.795 105.487 14.47 105.427 15.37C105.367 16.27 105.277 17.5 105.157 19.06C105.067 20.59 104.932 22.51 104.752 24.82C104.572 27.1 104.347 29.86 104.077 33.1C104.047 33.46 103.972 33.7 103.852 33.82C103.732 33.94 103.477 34 103.087 34H101.467ZM98.2723 3.94C98.2723 2.74 98.7073 1.795 99.5773 1.105C100.447 0.415 101.617 0.0699996 103.087 0.0699996C104.377 0.0699996 105.307 0.339999 105.877 0.879997C106.477 1.39 106.777 2.08 106.777 2.95C106.777 4.06 106.357 4.99 105.517 5.74C104.707 6.46 103.507 6.82 101.917 6.82C99.4873 6.82 98.2723 5.86 98.2723 3.94ZM120.829 28.465C121.699 28.465 122.449 28.345 123.079 28.105C123.739 27.865 124.309 27.595 124.789 27.295C125.269 26.995 125.674 26.725 126.004 26.485C126.334 26.245 126.634 26.125 126.904 26.125C127.594 26.125 127.939 26.575 127.939 27.475C127.939 27.685 127.894 27.985 127.804 28.375C127.714 28.735 127.594 29.125 127.444 29.545C127.294 29.935 127.129 30.31 126.949 30.67C126.799 31.03 126.649 31.3 126.499 31.48C126.349 31.63 126.079 31.87 125.689 32.2C125.329 32.53 124.834 32.86 124.204 33.19C123.574 33.52 122.839 33.805 121.999 34.045C121.159 34.315 120.229 34.45 119.209 34.45C118.069 34.45 116.884 34.285 115.654 33.955C114.454 33.595 113.359 32.995 112.369 32.155C111.379 31.285 110.554 30.13 109.894 28.69C109.264 27.22 108.949 25.39 108.949 23.2C108.949 22.42 108.994 21.535 109.084 20.545C109.204 19.525 109.429 18.49 109.759 17.44C110.089 16.36 110.524 15.31 111.064 14.29C111.634 13.24 112.384 12.31 113.314 11.5C114.244 10.69 115.354 10.045 116.644 9.565C117.964 9.055 119.524 8.8 121.324 8.8C122.794 8.8 124.054 8.98 125.104 9.34C126.184 9.67 127.069 10.135 127.759 10.735C128.449 11.305 128.959 11.98 129.289 12.76C129.649 13.54 129.829 14.38 129.829 15.28C129.829 16.9 129.319 18.1 128.299 18.88C127.279 19.63 125.839 20.005 123.979 20.005C123.529 20.005 123.214 19.975 123.034 19.915C122.884 19.825 122.809 19.645 122.809 19.375C122.809 18.655 122.794 18.01 122.764 17.44C122.734 16.87 122.644 16.39 122.494 16C122.374 15.61 122.179 15.31 121.909 15.1C121.639 14.89 121.249 14.785 120.739 14.785C119.809 14.785 119.059 15.085 118.489 15.685C117.949 16.285 117.529 17.02 117.229 17.89C116.959 18.73 116.779 19.6 116.689 20.5C116.629 21.4 116.599 22.15 116.599 22.75C116.599 24.88 116.929 26.365 117.589 27.205C118.279 28.045 119.359 28.465 120.829 28.465ZM153.715 30.355C153.715 30.505 153.64 30.805 153.49 31.255C153.34 31.705 153.1 32.17 152.77 32.65C152.44 33.13 152.02 33.55 151.51 33.91C151.03 34.27 150.445 34.45 149.755 34.45C148.945 34.45 148.135 34.18 147.325 33.64C146.545 33.1 145.765 32.365 144.985 31.435C144.205 30.505 143.41 29.41 142.6 28.15C141.82 26.86 141.025 25.465 140.215 23.965C140.095 25.555 139.975 27.115 139.855 28.645C139.735 30.175 139.615 31.66 139.495 33.1C139.465 33.46 139.39 33.7 139.27 33.82C139.15 33.94 138.895 34 138.505 34H136.885C135.955 34 135.19 33.91 134.59 33.73C133.99 33.52 133.525 33.235 133.195 32.875C132.865 32.515 132.625 32.065 132.475 31.525C132.355 30.955 132.295 30.31 132.295 29.59C132.295 29.23 132.31 28.855 132.34 28.465C132.37 28.075 132.415 27.52 132.475 26.8C132.535 26.08 132.61 25.135 132.7 23.965C132.82 22.795 132.955 21.25 133.105 19.33C133.255 17.41 133.42 15.055 133.6 12.265C133.81 9.445 134.035 6.025 134.275 2.005C134.305 1.345 134.38 0.954998 134.5 0.834998C134.59 0.744999 134.83 0.7 135.22 0.7H136.975C137.905 0.7 138.67 0.804999 139.27 1.015C139.87 1.225 140.35 1.51 140.71 1.87C141.07 2.23 141.31 2.65 141.43 3.13C141.58 3.61 141.655 4.105 141.655 4.615C141.655 4.915 141.625 5.425 141.565 6.145C141.535 6.835 141.49 7.69 141.43 8.71C141.37 9.7 141.28 10.825 141.16 12.085C141.07 13.345 140.98 14.665 140.89 16.045L148.09 9.475C148.36 9.235 148.6 9.07 148.81 8.98C149.05 8.89 149.23 8.845 149.35 8.845C149.68 8.845 150.04 9.055 150.43 9.475C150.82 9.895 151.18 10.39 151.51 10.96C151.87 11.5 152.155 12.07 152.365 12.67C152.605 13.24 152.725 13.705 152.725 14.065C152.725 14.935 152.02 15.85 150.61 16.81C149.23 17.77 147.13 18.85 144.31 20.05C145.57 21.46 146.77 22.75 147.91 23.92C149.05 25.09 150.04 26.125 150.88 27.025C151.75 27.925 152.44 28.66 152.95 29.23C153.46 29.8 153.715 30.175 153.715 30.355Z" fill="white"/>
<path d="M168.561 2.725C168.591 2.485 168.681 2.32 168.831 2.23C169.011 2.11 169.176 2.05 169.326 2.05C171.366 2.05 173.271 1.99 175.041 1.87C176.841 1.72 178.251 1.645 179.271 1.645C181.821 1.645 183.951 1.9 185.661 2.41C187.401 2.92 188.796 3.715 189.846 4.795C190.926 5.875 191.691 7.27 192.141 8.98C192.591 10.69 192.816 12.745 192.816 15.145C192.816 17.575 192.561 19.96 192.051 22.3C191.571 24.61 190.716 26.665 189.486 28.465C188.256 30.265 186.591 31.72 184.491 32.83C182.421 33.91 179.796 34.45 176.616 34.45C175.146 34.45 173.796 34.42 172.566 34.36C171.366 34.3 170.331 34.12 169.461 33.82C168.591 33.52 167.916 33.07 167.436 32.47C166.956 31.87 166.716 31.045 166.716 29.995C166.716 29.605 166.731 29.02 166.761 28.24C166.821 27.46 166.881 26.53 166.941 25.45C167.031 24.37 167.121 23.185 167.211 21.895C167.331 20.575 167.451 19.195 167.571 17.755C167.811 14.785 167.991 12.415 168.111 10.645C168.261 8.875 168.351 7.495 168.381 6.505C168.441 5.485 168.471 4.72 168.471 4.21C168.501 3.7 168.531 3.205 168.561 2.725ZM176.931 27.34C178.611 27.34 179.946 26.98 180.936 26.26C181.956 25.54 182.736 24.625 183.276 23.515C183.816 22.405 184.176 21.19 184.356 19.87C184.536 18.55 184.626 17.305 184.626 16.135C184.626 14.875 184.536 13.78 184.356 12.85C184.206 11.89 183.921 11.095 183.501 10.465C183.111 9.835 182.556 9.37 181.836 9.07C181.116 8.74 180.216 8.575 179.136 8.575C178.806 8.575 178.386 8.59 177.876 8.62C177.366 8.65 176.751 8.695 176.031 8.755C175.971 9.865 175.896 11.185 175.806 12.715C175.716 14.215 175.611 15.805 175.491 17.485C175.401 19.135 175.296 20.815 175.176 22.525C175.056 24.205 174.936 25.765 174.816 27.205C175.266 27.265 175.671 27.31 176.031 27.34C176.391 27.34 176.691 27.34 176.931 27.34ZM206.632 34.45C205.312 34.45 203.992 34.285 202.672 33.955C201.382 33.625 200.212 33.055 199.162 32.245C198.142 31.435 197.302 30.355 196.642 29.005C195.982 27.655 195.652 25.96 195.652 23.92C195.652 23.17 195.712 22.27 195.832 21.22C195.952 20.17 196.177 19.09 196.507 17.98C196.867 16.87 197.347 15.775 197.947 14.695C198.577 13.585 199.387 12.595 200.377 11.725C201.367 10.855 202.567 10.15 203.977 9.61C205.387 9.07 207.067 8.8 209.017 8.8C210.577 8.8 211.897 8.98 212.977 9.34C214.057 9.7 214.927 10.195 215.587 10.825C216.247 11.425 216.727 12.13 217.027 12.94C217.327 13.75 217.477 14.62 217.477 15.55C217.477 16.93 217.192 18.1 216.622 19.06C216.082 20.02 215.362 20.83 214.462 21.49C213.592 22.12 212.617 22.615 211.537 22.975C210.457 23.335 209.392 23.62 208.342 23.83C207.292 24.01 206.317 24.13 205.417 24.19C204.547 24.22 203.872 24.235 203.392 24.235C203.392 24.805 203.467 25.375 203.617 25.945C203.797 26.485 204.052 26.965 204.382 27.385C204.712 27.805 205.147 28.15 205.687 28.42C206.227 28.69 206.887 28.825 207.667 28.825C208.447 28.825 209.047 28.705 209.467 28.465C209.917 28.195 210.277 27.91 210.547 27.61C210.817 27.28 211.042 26.995 211.222 26.755C211.432 26.485 211.702 26.35 212.032 26.35C212.182 26.35 212.437 26.395 212.797 26.485C213.187 26.545 213.577 26.695 213.967 26.935C214.357 27.175 214.702 27.505 215.002 27.925C215.302 28.345 215.452 28.885 215.452 29.545C215.452 30.415 215.182 31.165 214.642 31.795C214.102 32.425 213.397 32.935 212.527 33.325C211.687 33.715 210.742 34 209.692 34.18C208.642 34.36 207.622 34.45 206.632 34.45ZM207.487 14.785C206.827 14.785 206.257 14.98 205.777 15.37C205.327 15.73 204.937 16.195 204.607 16.765C204.307 17.335 204.067 17.965 203.887 18.655C203.737 19.345 203.617 20.005 203.527 20.635C205.387 20.605 206.887 20.29 208.027 19.69C209.197 19.09 209.782 18.235 209.782 17.125C209.782 16.525 209.587 15.985 209.197 15.505C208.837 15.025 208.267 14.785 207.487 14.785ZM230.672 8.8C233.222 8.8 235.097 9.31 236.297 10.33C237.497 11.32 238.097 12.595 238.097 14.155C238.097 15.475 237.677 16.48 236.837 17.17C236.027 17.86 234.842 18.205 233.282 18.205C232.862 18.205 232.577 18.16 232.427 18.07C232.277 17.98 232.202 17.815 232.202 17.575C232.202 17.305 232.172 17.005 232.112 16.675C232.082 16.315 231.977 15.985 231.797 15.685C231.647 15.355 231.392 15.085 231.032 14.875C230.702 14.665 230.222 14.56 229.592 14.56C228.752 14.56 228.077 14.77 227.567 15.19C227.057 15.58 226.802 16.075 226.802 16.675C226.802 17.305 227.057 17.815 227.567 18.205C228.107 18.565 228.767 18.91 229.547 19.24C230.357 19.57 231.227 19.915 232.157 20.275C233.087 20.605 233.942 21.055 234.722 21.625C235.532 22.195 236.192 22.915 236.702 23.785C237.242 24.625 237.512 25.72 237.512 27.07C237.512 29.23 236.747 31 235.217 32.38C233.687 33.76 231.392 34.45 228.332 34.45C227.492 34.45 226.517 34.375 225.407 34.225C224.327 34.105 223.292 33.91 222.302 33.64C221.312 33.34 220.472 32.95 219.782 32.47C219.122 31.99 218.792 31.39 218.792 30.67C218.792 30.4 218.837 30.07 218.927 29.68C219.047 29.29 219.212 28.915 219.422 28.555C219.662 28.195 219.932 27.895 220.232 27.655C220.562 27.385 220.952 27.25 221.402 27.25C221.762 27.25 222.092 27.34 222.392 27.52C222.692 27.7 223.037 27.895 223.427 28.105C223.847 28.285 224.357 28.465 224.957 28.645C225.557 28.825 226.352 28.915 227.342 28.915C228.092 28.915 228.752 28.825 229.322 28.645C229.922 28.465 230.222 28.06 230.222 27.43C230.222 26.86 229.982 26.41 229.502 26.08C229.022 25.72 228.407 25.39 227.657 25.09C226.937 24.79 226.142 24.475 225.272 24.145C224.432 23.785 223.637 23.32 222.887 22.75C222.167 22.18 221.567 21.46 221.087 20.59C220.607 19.69 220.367 18.535 220.367 17.125C220.367 15.595 220.667 14.305 221.267 13.255C221.897 12.175 222.692 11.305 223.652 10.645C224.642 9.985 225.752 9.52 226.982 9.25C228.212 8.95 229.442 8.8 230.672 8.8ZM256.264 28.42C256.354 27.43 256.444 26.395 256.534 25.315C256.654 24.235 256.744 23.2 256.804 22.21C256.894 21.22 256.969 20.335 257.029 19.555C257.089 18.775 257.119 18.205 257.119 17.845C257.119 17.065 256.924 16.375 256.534 15.775C256.174 15.145 255.454 14.83 254.374 14.83C252.934 14.83 251.764 15.505 250.864 16.855C249.994 18.205 249.484 20.005 249.334 22.255C249.274 22.885 249.199 23.77 249.109 24.91C249.019 26.02 248.929 27.16 248.839 28.33C248.749 29.47 248.659 30.505 248.569 31.435C248.509 32.335 248.479 32.89 248.479 33.1C248.479 33.46 248.404 33.7 248.254 33.82C248.134 33.94 247.879 34 247.489 34H245.869C244.939 34 244.174 33.91 243.574 33.73C243.004 33.52 242.539 33.235 242.179 32.875C241.849 32.515 241.609 32.08 241.459 31.57C241.339 31.03 241.279 30.415 241.279 29.725C241.279 29.065 241.324 28.15 241.414 26.98C241.534 25.78 241.684 24.145 241.864 22.075C242.044 19.975 242.254 17.305 242.494 14.065C242.734 10.825 242.989 6.805 243.259 2.005C243.289 1.345 243.364 0.954998 243.484 0.834998C243.574 0.744999 243.814 0.7 244.204 0.7H245.959C246.859 0.7 247.609 0.804999 248.209 1.015C248.809 1.225 249.289 1.51 249.649 1.87C250.009 2.23 250.264 2.65 250.414 3.13C250.564 3.58 250.639 4.06 250.639 4.57C250.639 5.11 250.579 6.115 250.459 7.585C250.369 9.055 250.249 10.78 250.099 12.76C250.999 11.26 251.989 10.225 253.069 9.655C254.179 9.085 255.574 8.8 257.254 8.8C258.514 8.8 259.609 8.935 260.539 9.205C261.469 9.475 262.234 9.94 262.834 10.6C263.464 11.23 263.929 12.07 264.229 13.12C264.529 14.14 264.679 15.415 264.679 16.945C264.679 17.425 264.634 18.25 264.544 19.42C264.454 20.59 264.334 21.925 264.184 23.425C264.064 24.925 263.929 26.5 263.779 28.15C263.659 29.77 263.554 31.255 263.464 32.605C263.434 32.935 263.404 33.19 263.374 33.37C263.344 33.55 263.284 33.685 263.194 33.775C263.134 33.865 263.029 33.925 262.879 33.955C262.729 33.985 262.519 34 262.249 34H260.809C259.849 34 259.069 33.91 258.469 33.73C257.869 33.55 257.404 33.295 257.074 32.965C256.744 32.635 256.504 32.23 256.354 31.75C256.234 31.24 256.174 30.67 256.174 30.04C256.174 29.74 256.174 29.455 256.174 29.185C256.204 28.915 256.234 28.66 256.264 28.42ZM277.297 13.075C277.297 13.705 277.237 14.59 277.117 15.73C277.027 16.87 276.922 18.055 276.802 19.285C276.712 20.515 276.607 21.67 276.487 22.75C276.397 23.83 276.352 24.61 276.352 25.09C276.352 26.14 276.607 26.965 277.117 27.565C277.657 28.135 278.392 28.42 279.322 28.42C280.132 28.42 280.807 28.105 281.347 27.475C281.917 26.815 282.367 25.975 282.697 24.955C283.057 23.905 283.342 22.72 283.552 21.4C283.762 20.08 283.912 18.745 284.002 17.395C284.122 16.045 284.212 14.74 284.272 13.48C284.362 12.19 284.452 11.08 284.542 10.15C284.572 9.91 284.662 9.7 284.812 9.52C284.962 9.34 285.202 9.25 285.532 9.25H287.152C288.082 9.25 288.832 9.355 289.402 9.565C290.002 9.745 290.467 10.015 290.797 10.375C291.157 10.735 291.397 11.185 291.517 11.725C291.667 12.235 291.742 12.835 291.742 13.525C291.742 13.975 291.712 14.62 291.652 15.46C291.622 16.27 291.547 17.41 291.427 18.88C291.307 20.32 291.157 22.165 290.977 24.415C290.827 26.635 290.632 29.395 290.392 32.695C290.332 33.325 290.257 33.7 290.167 33.82C290.107 33.94 289.867 34 289.447 34H287.692C286.792 34 286.042 33.895 285.442 33.685C284.872 33.475 284.407 33.205 284.047 32.875C283.687 32.545 283.432 32.155 283.282 31.705C283.132 31.255 283.042 30.79 283.012 30.31C282.562 31.09 282.052 31.75 281.482 32.29C280.942 32.83 280.372 33.265 279.772 33.595C279.172 33.895 278.557 34.105 277.927 34.225C277.297 34.375 276.682 34.45 276.082 34.45C274.942 34.45 273.922 34.27 273.022 33.91C272.122 33.52 271.357 33.01 270.727 32.38C270.127 31.75 269.662 31 269.332 30.13C269.002 29.26 268.837 28.33 268.837 27.34C268.837 26.95 268.852 26.32 268.882 25.45C268.942 24.55 269.002 23.545 269.062 22.435C269.152 21.325 269.242 20.155 269.332 18.925C269.422 17.665 269.497 16.48 269.557 15.37C269.647 14.26 269.722 13.285 269.782 12.445C269.872 11.605 269.932 11.005 269.962 10.645C270.022 10.105 270.142 9.745 270.322 9.565C270.502 9.355 270.802 9.25 271.222 9.25H272.662C273.592 9.25 274.357 9.34 274.957 9.52C275.557 9.7 276.022 9.955 276.352 10.285C276.712 10.615 276.952 11.02 277.072 11.5C277.222 11.95 277.297 12.475 277.297 13.075Z" fill="#C30004"/>
</svg>
